<svg xmlns="http://www.w3.org/2000/svg" viewBox="0 0 256 256" role="img" aria-labelledby="title desc">
  <title id="title">Seven-point platform gear</title>
  <desc id="desc">A seven-toothed gear with a circular hole, inspired by a ship helm and Kubernetes-style platform iconography.</desc>
  <defs>
    <linearGradient id="gear-fill" x1="48" y1="28" x2="208" y2="228" gradientUnits="userSpaceOnUse">
      <stop offset="0" stop-color="#ffb14f" />
      <stop offset="0.48" stop-color="#ff8a4c" />
      <stop offset="1" stop-color="#a77cf2" />
    </linearGradient>
    <filter id="soft-shadow" x="-20%" y="-20%" width="140%" height="140%">
      <feDropShadow dx="0" dy="10" stdDeviation="8" flood-color="#402b15" flood-opacity="0.18" />
    </filter>
  </defs>
  <rect width="256" height="256" rx="56" fill="#fffaf1" />
  <g filter="url(#soft-shadow)">
    <path d="M 98.79 40.76 L 109.34 13.51 L 146.66 13.51 L 157.21 40.76 L 177.99 50.77 L 205.88 42.03 L 229.15 71.21 L 214.42 96.45 L 219.55 118.93 L 243.77 135.28 L 235.47 171.67 L 206.55 175.89 L 192.17 193.92 L 194.49 223.05 L 160.86 239.25 L 139.53 219.27 L 116.47 219.27 L 95.14 239.25 L 61.51 223.05 L 63.83 193.92 L 49.45 175.89 L 20.53 171.67 L 12.23 135.28 L 36.45 118.93 L 41.58 96.45 L 26.85 71.21 L 50.12 42.03 L 78.01 50.77 Z M 128 85 a 43 43 0 1 0 0.1 0 Z" fill="url(#gear-fill)" fill-rule="evenodd" />
    <circle cx="128" cy="128" r="34" fill="#fffaf1" />
    <g stroke="#fffaf1" stroke-width="12" stroke-linecap="round" opacity="0.92">
      <line x1="128.00" y1="83.00" x2="128.00" y2="55.00" /><line x1="163.18" y1="99.94" x2="185.07" y2="82.49" /><line x1="171.87" y1="138.01" x2="199.17" y2="144.24" /><line x1="147.52" y1="168.54" x2="159.67" y2="193.77" /><line x1="108.48" y1="168.54" x2="96.33" y2="193.77" /><line x1="84.13" y1="138.01" x2="56.83" y2="144.24" /><line x1="92.82" y1="99.94" x2="70.93" y2="82.49" />
    </g>
    <circle cx="128" cy="128" r="31" fill="#1f2430" />
    <circle cx="128" cy="128" r="17" fill="#fffaf1" />
  </g>
</svg>
